<?xml version="1.0" encoding="utf-8"?>
<!-- Generator: Adobe Illustrator 17.0.2, SVG Export Plug-In . SVG Version: 6.00 Build 0)  -->
<!DOCTYPE svg PUBLIC "-//W3C//DTD SVG 1.1//EN" "http://www.w3.org/Graphics/SVG/1.1/DTD/svg11.dtd">
<svg version="1.1" id="tomroberts101.com" xmlns="http://www.w3.org/2000/svg" xmlns:xlink="http://www.w3.org/1999/xlink" x="0px"
	 y="0px" width="1024px" height="1024px" viewBox="0 0 1024 1024" enable-background="new 0 0 1024 1024" xml:space="preserve">
<rect id="Base_1_" fill="#FFFFFF" width="1024" height="1024"/>
<g id="Acid_Smiley_-_tomroberts101.com">
	<g id="Face">
		<circle fill="#F6EB13" cx="512" cy="512.001" r="512"/>
	</g>
	<ellipse id="L_Eye" stroke="#000000" stroke-miterlimit="10" cx="378.626" cy="312.42" rx="55.474" ry="151.872"/>
	<ellipse id="R_Eye" stroke="#000000" stroke-miterlimit="10" cx="656.906" cy="312.42" rx="55.474" ry="151.872"/>
	<g id="Mouth">
		<g>
			<path d="M852.644,536.934c-0.03,12.395-0.768,24.756-2.228,37.064c-0.172,1.458-0.366,2.915-0.56,4.37
				c0.425-3.189-0.256,1.589-0.292,1.811c-0.439,2.889-0.943,5.766-1.467,8.64c-1.128,6.193-2.49,12.341-3.999,18.452
				c-2.877,11.661-6.519,23.124-10.737,34.366c-1.006,2.686-2.07,5.351-3.152,8.009c-1.782,4.379,1.173-2.724-0.689,1.62
				c-0.565,1.317-1.146,2.625-1.73,3.934c-2.521,5.667-5.248,11.241-8.099,16.75c-5.481,10.592-11.628,20.832-18.251,30.748
				c-3.185,4.767-6.526,9.43-9.957,14.024c-2.83,3.791,1.822-2.34-1.076,1.404c-0.879,1.135-1.773,2.259-2.666,3.384
				c-2.087,2.626-4.23,5.206-6.396,7.767c-7.766,9.188-16.081,17.903-24.775,26.214c-4.197,4.012-8.521,7.891-12.913,11.686
				c-2.203,1.904-4.443,3.767-6.694,5.615c-1.128,0.926-2.267,1.837-3.404,2.749c-0.762,0.607-1.526,1.21-2.291,1.812
				c1.258-0.977,1.162-0.908-0.289,0.209c-19.558,15.004-40.759,27.817-62.957,38.511c-5.413,2.608-10.904,5.049-16.437,7.388
				c3.093-1.308-1.508,0.595-1.737,0.688c-1.402,0.566-2.81,1.115-4.22,1.663c-3.297,1.284-6.62,2.501-9.953,3.689
				c-12.03,4.293-24.3,7.89-36.703,10.932c-26.754,6.562-48.244,9.279-75.516,10.122c-13.451,0.416-26.922,0.06-40.342-0.909
				c-6.342-0.458-12.667-1.111-18.978-1.881c0.012,0.001-5.126-0.673-2.269-0.277c-1.559-0.216-3.114-0.452-4.67-0.687
				c-3.616-0.547-7.218-1.169-10.817-1.821c-25.173-4.553-49.838-11.806-73.553-21.378c-0.089-0.036-4.662-1.947-1.905-0.782
				c-1.387-0.585-2.765-1.188-4.144-1.791c-2.75-1.203-5.479-2.456-8.199-3.726c-5.865-2.737-11.637-5.664-17.348-8.709
				c-10.88-5.802-21.423-12.22-31.649-19.103c-4.868-3.276-9.635-6.702-14.335-10.216c-3.858-2.885,2.317,1.802-1.489-1.143
				c-1.155-0.893-2.299-1.801-3.443-2.708c-2.664-2.115-5.283-4.284-7.884-6.475c-9.239-7.784-18.021-16.101-26.391-24.807
				c-3.996-4.157-7.86-8.44-11.638-12.796c-1.885-2.172-3.728-4.381-5.556-6.602c-0.914-1.109-1.813-2.23-2.712-3.352
				c-0.597-0.748-1.192-1.499-1.782-2.252c1.002,1.291,0.948,1.216-0.163-0.226c-7.267-9.474-13.956-19.385-20.142-29.594
				c-6.921-11.425-13.051-23.322-18.478-35.525c-0.582-1.309-1.147-2.625-1.711-3.943c-0.727-1.719-0.744-1.76-0.052-0.122
				c-0.363-0.885-0.72-1.772-1.075-2.658c-1.248-3.109-2.425-6.244-3.571-9.392c-2.465-6.763-4.647-13.628-6.634-20.548
				c-3.743-13.041-6.526-26.347-8.509-39.765c-0.048-0.322-0.697-5.127-0.255-1.684c-0.25-1.946-0.466-3.897-0.679-5.848
				c-0.373-3.428-0.663-6.865-0.921-10.305c-0.557-7.443-0.789-14.909-0.808-22.372c-0.021-8.461-6.905-15.592-15.424-15.648
				c-8.404-0.057-15.669,6.961-15.648,15.424c0.243,100.578,48.27,195.522,125.911,258.747
				c82.016,66.789,190.536,96.174,295.236,82.957c102.971-13,197.899-65.79,259.52-149.844
				c40.501-55.243,62.602-123.185,62.766-191.638c0.021-8.462-6.935-15.592-15.424-15.648
				C859.856,521.454,852.665,528.471,852.644,536.934L852.644,536.934z"/>
		</g>
	</g>
	<g id="L_Dimple">
		<g>
			<path d="M128.133,557.259c-5.544,4.508,0.151,0.09,1.912-0.949c1.754-1.036,3.576-1.952,5.417-2.82
				c3.652-1.726-1.6,0.577,0.945-0.434c1.33-0.528,2.684-0.992,4.04-1.447c3.099-1.04,6.277-1.821,9.475-2.489
				c0.47-0.099,5.563-0.929,3.155-0.62c1.984-0.254,3.979-0.393,5.973-0.518c8.986-0.559,17.823,0.421,26.568,2.441
				c7.367,1.702,14.98-2.217,17.041-9.717c1.942-7.066-2.359-15.341-9.717-17.041c-27.967-6.462-61.34-4.775-84.529,14.08
				c-5.867,4.772-4.831,14.742,0.105,19.617C114.322,563.097,122.267,562.029,128.133,557.259L128.133,557.259z"/>
		</g>
	</g>
	<g id="R_Dimple">
		<g>
			<path d="M913.439,533.949c-23.102-18.784-56.525-20.422-84.352-13.993c-17.447,4.032-10.208,30.81,7.18,26.792
				c16.226-3.749,30.54-3.528,45.171,1.152c1.362,0.436,2.704,0.935,4.04,1.446c2.429,0.926-2.41-1.111,1.106,0.497
				c1.852,0.848,3.652,1.805,5.417,2.821c1.888,1.086,7.016,5.144,1.928,1.006c5.853,4.759,13.914,5.668,19.617-0.105
				C918.466,548.581,919.317,538.728,913.439,533.949L913.439,533.949z"/>
		</g>
	</g>
</g>
</svg>
